<?xml version="1.0" encoding="UTF-8"?>
<svg id="Layer_2" data-name="Layer 2" xmlns="http://www.w3.org/2000/svg" viewBox="0 0 241.36 124.75">
  <g id="Layer_1-2" data-name="Layer 1">
    <g>
      <path d="M32.44,35.58c-2.36,4.27-6.94,6.53-12.54,6.07-2.72-.18-6.06-1.42-8.12-2.85-4.78-3.26-8.74-9.05-8.12-15.26.57-5.93,5.09-11.12,10.23-13.97,2.72-1.47,5.86-2.21,9.2-1.93,2.26.14,4.73,1.15,6.37,2.94.41.37.87,1.01,1.13,1.38.15.23.31.32.46.32.21,0,.46-.05.77-.41l2.72-3.08c.31-.37.51-.41.77-.41.31.05.57.28.57.51v.05c-.15,1.52-.41,3.35-.67,5.65-.41,4.09-.46,8.04-.51,8.5v.09c-.05.51-.41.74-.82.74-.36,0-.72-.28-.82-.69-.98-3.95-2.06-8.36-4.01-10.98-1.44-1.93-3.55-2.99-5.86-3.17-6.32-.51-9.4,3.26-10.59,15.17-.92,9.7.31,15.17,7.86,15.76,4.47.32,8.12-1.24,10.28-5.01.98-1.79,1.64-3.95,2.21-6.39.1-.6.46-.78.82-.78.41,0,.72.32.72.87-.21,2.44-1.44,5.7-2.06,6.89Z" fill="#ac6c00"/>
      <path d="M73.04,40.45c0,.18-.15.32-.31.32-2.88.14-7.09.23-9.2.32l-12.75.69c-4.21.23-7.25.51-10.12.64-.46.05-.77-.32-.77-.64-.05-.28.15-.6.62-.64l4.93-.46c.98-.09,1.49-.64,1.44-1.7l-1.8-27.07c-.05-.87-.41-1.24-1.34-1.24h-5.14c-.41.05-.67-.28-.67-.55,0-.32.21-.64.67-.69,2-.09,7.66-.28,10.48-.41,2.88-.18,8.27-.55,10.43-.64.41-.05.72.28.72.6.05.28-.15.6-.57.64l-5.34.51c-.77.09-1.29.6-1.23,1.38l1.75,26.93c.05,1.01.82,2.07,3.08,1.98h.21c3.13-.18,4.83-.55,6.94-2.48,1.85-1.79,4.37-6.02,6.27-11.12.15-.32.31-.46.62-.51.31,0,.57.23.57.51v.09c.21,3.12.15,7.54.41,11.67l.1,1.88Z" fill="#ac6c00"/>
      <path d="M113.33,40.73c-5.29-.69-13.41-1.33-19.17-1.7-.46-.05-.62-.32-.62-.64,0-.28.26-.55.82-.55h3.6c.98,0,1.54-.46,1.54-1.29,0-.18-.05-.46-.1-.69l-1.95-7.81-9.2-.78-2.88,5.56c-.26.46-.36.92-.36,1.33,0,1.1.77,2.02,2.26,2.44l3.65.92c.51.14.62.37.62.64,0,.32-.26.6-.57.6h-.05c-2.21-.18-4.78-.6-7.97-.87-3.91-.32-4.06-.18-6.53-.37-.41-.05-.57-.41-.57-.74,0-.28.26-.6.67-.64l2.26-.28c2-.23,4.11-.92,5.34-3.31l14.13-26.61c.26-.41.57-.55.93-.55.41,0,.82.18.92.69l7.4,30.38c.41,1.61.82,2.16,2.98,2.53l2.98.51c.46.09.62.37.62.64,0,.32-.15.6-.57.6h-.21ZM94.47,15.49l-5.6,10.75,8.38.74-2.77-11.49Z" fill="#ac6c00"/>
      <path d="M118.83,38.98c-.21.23-.36.46-.67.51-.31,0-.57-.18-.57-.55v-.09c0-.23.1-4.23,0-5.79v-1.06c-.15-3.86-.67-5.84-.72-7.26,0-.37.26-.55.57-.55s.51.18.67.55c.72,1.65,1.34,3.31,2.11,4.83.77,1.56,1.59,2.94,2.67,4.14,2.16,2.44,5.14,4,10.02,3.86,5.24-.18,8.07-2.57,7.92-6.3-.1-2.34-1.75-3.72-4.99-4.55-4.21-1.06-8.79-1.65-12.95-2.85-4.47-1.29-6.22-4.55-6.37-8.5-.15-3.22.98-5.79,3.34-7.81,1.9-1.61,4.68-2.53,7.61-2.62,2.36-.09,4.27.23,5.96.97,1.28.55,2.11,1.1,2.77,1.61.51.41.77.51,1.08.51.36,0,.46-.18.72-.51l1.85-2.67c.31-.37.51-.51.77-.51.31,0,.51.18.51.6.05.46-.15,2.39-.05,5.56.15,3.81.46,5.06.57,6.8,0,.37-.31.55-.57.55s-.51-.14-.67-.55c-.56-1.24-.98-2.62-1.64-3.95-.67-1.29-1.44-2.57-2.42-3.63-1.95-2.16-4.57-3.54-9.04-3.4-4.93.14-7.4,3.26-7.3,6.02.1,2.71,1.39,3.86,4.32,4.46,3.85.83,8.17,1.56,12.08,2.34,5.81,1.19,8.02,4.04,8.22,9.61.26,6.53-4.62,10.06-11.92,10.29-3.55.09-6.58-.83-8.63-2.3-.93-.69-1.03-.78-1.39-1.01-.26-.23-.46-.32-.67-.32-.36,0-.62.28-.77.55l-2.42,3.03Z" fill="#ac6c00"/>
      <path d="M151.47,40.77c-.51.51-.72.69-1.03.69s-.51-.18-.51-.55c0-.41.82-4.32,1.13-6.89.41-3.86.26-5.84.41-7.26.05-.37.31-.55.62-.55s.51.23.62.69c.46,1.7.77,3.35,1.29,5.06.57,1.56,1.18,3.12,2.06,4.37,1.75,2.67,4.42,4.6,9.3,5.1,5.24.46,8.38-1.56,8.79-5.19.31-2.34-1.13-3.91-4.21-5.19-4.01-1.52-8.38-2.71-12.33-4.41-4.21-1.84-5.5-5.29-5.04-9.24.41-3.22,1.95-5.61,4.57-7.31,2.11-1.38,4.99-1.93,7.91-1.65,2.36.23,4.27.74,5.76,1.7,1.29.69,1.9,1.33,2.57,1.93.46.41.67.64.92.64.31,0,.57-.14,1.08-.69l2-2.11c.36-.32.57-.41.82-.41.31,0,.46.23.41.64-.05.46-.51,2.34-.92,5.52-.46,3.77-.36,5.06-.51,6.8-.05.37-.36.46-.62.46s-.51-.18-.62-.6c-.36-1.33-.57-2.76-1.03-4.14-.46-1.38-1.03-2.71-1.8-3.91-1.54-2.39-3.96-4.09-8.43-4.5-4.88-.46-7.86,2.3-8.17,5.06-.31,2.71.77,4,3.6,4.96,3.7,1.29,7.92,2.53,11.62,3.81,5.55,1.93,7.3,5.01,6.63,10.48-.77,6.57-6.12,9.42-13.41,8.78-3.55-.37-6.37-1.65-8.22-3.35-.82-.83-.92-.92-1.18-1.19-.31-.32-.57-.41-.77-.41-.26,0-.46.14-1.49,1.15l-1.8,1.75Z" fill="#ac6c00"/>
      <path d="M203.47,39.53c.46.05.67.37.67.64,0,.32-.26.6-.67.6-.62.05-5.19,0-9.87.14-4.68.09-9.25.37-9.87.37-.41.05-.67-.23-.67-.55,0-.28.21-.6.67-.69l4.47-.37c.87-.09,1.29-.32,1.29-1.1l-.93-27.81c0-.69-.36-1.01-1.28-1.06l-4.57-.14c-.46-.05-.67-.32-.67-.6,0-.32.26-.64.67-.64.57-.05,4.99,0,9.82-.14,4.83-.14,9.25-.37,9.82-.37.41-.05.67.28.67.6,0,.28-.21.55-.67.64l-4.47.37c-.93.09-1.29.46-1.29,1.15l.92,27.81c0,.78.41.97,1.29,1.01l4.68.14Z" fill="#ac6c00"/>
      <path d="M233.85,35.58c-2.36,4.27-6.94,6.53-12.54,6.07-2.72-.18-6.06-1.42-8.12-2.85-4.78-3.26-8.74-9.05-8.12-15.26.57-5.93,5.09-11.12,10.23-13.97,2.72-1.47,5.86-2.21,9.2-1.93,2.26.14,4.73,1.15,6.37,2.94.41.37.87,1.01,1.13,1.38.15.23.31.32.46.32.21,0,.46-.05.77-.41l2.72-3.08c.31-.37.51-.41.77-.41.31.05.57.28.57.51v.05c-.15,1.52-.41,3.35-.67,5.65-.41,4.09-.46,8.04-.51,8.5v.09c-.05.51-.41.74-.82.74-.36,0-.72-.28-.82-.69-.98-3.95-2.05-8.36-4.01-10.98-1.44-1.93-3.55-2.99-5.86-3.17-6.32-.51-9.4,3.26-10.59,15.17-.93,9.7.31,15.17,7.86,15.76,4.47.32,8.12-1.24,10.28-5.01.98-1.79,1.64-3.95,2.21-6.39.1-.6.46-.78.82-.78.41,0,.72.32.72.87-.21,2.44-1.44,5.7-2.06,6.89Z" fill="#ac6c00"/>
    </g>
    <g>
      <path d="M32.16,80.46c-2.47,4.46-7.24,6.81-13.08,6.33-2.84-.19-6.33-1.49-8.47-2.97-4.99-3.4-9.11-9.45-8.47-15.92.59-6.18,5.31-11.6,10.67-14.57,2.84-1.53,6.11-2.3,9.6-2.01,2.36.14,4.93,1.2,6.65,3.07.43.38.91,1.05,1.18,1.44.16.24.32.34.48.34.21,0,.48-.05.8-.43l2.84-3.21c.32-.38.54-.43.8-.43.32.05.59.29.59.53v.05c-.16,1.58-.43,3.5-.7,5.9-.43,4.27-.48,8.39-.54,8.87v.1c-.05.53-.43.77-.86.77-.38,0-.75-.29-.86-.72-1.02-4.12-2.14-8.73-4.18-11.46-1.5-2.01-3.7-3.12-6.11-3.31-6.59-.53-9.81,3.4-11.04,15.82-.96,10.12.32,15.82,8.2,16.44,4.66.34,8.47-1.29,10.72-5.23,1.02-1.87,1.72-4.12,2.31-6.66.11-.62.48-.82.86-.82.43,0,.75.34.75.91-.21,2.54-1.5,5.95-2.14,7.19Z" fill="#5259dd"/>
      <path d="M76.54,85.64c.05.19-.11.34-.27.38-2.95.24-7.34.53-9.54.72l-12.86,1.25c-2.95.29-9.33.96-11.36,1.15-.38.05-.64-.24-.7-.53,0-.34.16-.67.7-.77l4.56-.67c1.02-.14,1.55-.43,1.45-1.53l-3.32-27.95c-.11-1.01-.43-1.73-2.04-1.68l-4.4.19c-.48,0-.75-.29-.75-.58-.05-.34.16-.67.59-.72,2.84-.29,8.79-.72,10.77-.91l13.03-1.25c2.09-.19,8.31-.86,9.33-.96.16-.05.27.14.27.29.59,4.75,1.34,9.88,2.14,13.28,0,.19-.21.48-.54.53-.27,0-.59-.1-.7-.34-4.02-6.71-6.91-11.03-11.04-11.41-1.13-.1-2.68.05-3.59.1l-1.93.19c-2.41.24-3.06.81-2.89,2.11l1.61,13.42,2.68-.38c3.16-.43,4.88-2.73,5.63-7.91.05-.24.27-.43.54-.48.32-.05.64.1.64.34.11,1.01.11,4.08.59,7.96.43,3.55,1.18,6.71,1.29,8.01.05.24-.27.43-.59.43-.27.05-.43-.1-.54-.38-2.14-5.13-4.18-6.95-7.4-6.9l-2.79.05,1.66,13.9c.16,1.44,1.07,1.97,3.32,1.73l1.55-.14c3.59-.33,5.63-1.44,7.18-3.12,1.77-1.97,3.81-6.23,5.31-11.55.11-.33.32-.53.59-.53.27-.05.54.05.59.34v.1c.38,3.21.54,8.01,1.02,12.27l.21,1.97Z" fill="#5259dd"/>
      <path d="M90.96,53.85l-1.98,24.31c-.05,1.29.27,1.77,4.18,2.54l4.4.91c.43.1.54.38.54.62,0,.38-.38.67-.8.67-.96-.05-3.86-.48-9.33-.82-4.66-.24-7.13-.24-8.09-.29-.48-.05-.64-.38-.64-.72,0-.24.21-.58.7-.62l3.06-.38c3.81-.48,4.5-.58,4.66-2.54l2.09-25.41c-.91-1.53-1.55-2.44-3.27-2.68l-4.34-.67c-.54-.1-.7-.38-.7-.72,0-.43.32-.62.75-.62.59,0,4.23.34,7.24.58,2.95.24,6.16.38,6.65.43.43.05.75.19,1.02.62l13.35,20.57c.11.14.21.19.32.19.16,0,.27-.1.32-.48l1.29-15.53c.16-1.58-.43-2.21-3.06-2.64l-4.23-.82c-.43-.1-.59-.43-.59-.72,0-.34.32-.62.7-.62s16.08.91,16.67.91c.54,0,.7.38.7.72,0,.29-.21.58-.64.62l-3.54.34c-3.22.24-4.45.43-4.61,2.11l-1.61,20.04c-.43,5.61-.43,8.25-.54,10.4,0,.19-.21.38-.48.38-.16,0-.38-.05-.59-.38l-19.57-30.3Z" fill="#5259dd"/>
      <path d="M153.57,84.77c.48.05.75.34.75.67s-.27.67-.75.67c-1.72.05-6.49-.05-11.58.05-4.56.05-9.97.24-11.69.29-.48,0-.75-.34-.75-.67s.27-.62.75-.67l5.84-.58c1.13-.1,1.55-.34,1.55-1.2l-.48-30.11c0-.29-.05-.38-.32-.38l-2.3.05c-1.72,0-2.68.62-3.7,2.06-.48.67-.96,1.58-1.5,2.69l-1.88,4.07-1.98,4.36c-.11.24-.27.43-.54.43s-.54-.14-.54-.43c-.05-1.97.05-3.84,0-6.23l-.16-7.53c0-.14.05-.24.27-.24h9.17l15.49-.24c1.98,0,6.22-.14,9-.19.21,0,.27.1.27.24l.16,7.53c0,2.4.16,4.27.21,6.23,0,.29-.27.43-.54.43s-.43-.19-.54-.43l-2.2-4.31-1.98-4.03c-.54-1.1-1.13-1.97-1.61-2.64-1.02-1.39-1.98-2.01-3.7-1.97h-2.31c-.38,0-.43.1-.43.38l.48,30.11c0,.86.48,1.1,1.55,1.2l5.95.38Z" fill="#5259dd"/>
      <path d="M181.65,82.09c.48.05.64.38.64.67,0,.33-.27.67-.7.67s-8.25-.38-10.56-.48c-2.31-.05-8.63-.1-10.35-.19-.48,0-.75-.34-.75-.67s.27-.58.75-.62l4.29-.24c1.45-.1,2.14-.24,2.2-1.44l1.13-28c.05-1.1-.64-1.53-1.88-1.68l-4.5-.43c-.48-.05-.64-.38-.64-.67,0-.34.27-.62.8-.62,1.45.05,4.99.29,10.02.48,2.89.05,6.75.05,10.72.19,8.84.24,15.17,4.12,15.01,8.87-.21,4.41-3.59,6.28-6.33,7.14-2.36.86-5.41,1.01-6.11,1.01-.21,0-.32.1-.32.19s.11.14.21.19c.96.38,5.2,1.96,6.59,3.36,2.04,1.82,2.89,2.97,3.32,8.87.11,1.44.54,3.07,2.36,3.16,1.88.05,2.63-1.87,2.68-3.45.05-1.73,0-2.45.05-3.07,0-.34.32-.53.64-.53s.64.19.64.53c.05,1.05,0,2.25,0,3.26-.16,3.74-2.68,6.09-7.18,5.95-1.77-.1-4.02-.43-4.99-1.1-1.72-1.1-2.89-2.64-3-5.23-.05-1.15-.11-2.49-.11-3.74.11-6.38-.75-7.62-5.09-7.86l-5.15-.29-.54,13.66c-.05,1.1.32,1.58,2.04,1.73l4.07.38ZM176.13,65.45c9.7.14,12.44,0,12.76-7.81.16-5.03-1.93-6.76-6.54-7.19-.91-.1-1.82-.14-3.05-.14-1.61,0-2.57.38-2.63,1.58l-.54,13.57Z" fill="#5259dd"/>
      <path d="M238.74,85.64c.05.19-.11.34-.27.38-2.95.24-7.34.53-9.54.72l-12.87,1.25c-2.95.29-9.33.96-11.36,1.15-.38.05-.64-.24-.7-.53,0-.34.16-.67.7-.77l4.56-.67c1.02-.14,1.55-.43,1.45-1.53l-3.32-27.95c-.11-1.01-.43-1.73-2.04-1.68l-4.4.19c-.48,0-.75-.29-.75-.58-.05-.34.16-.67.59-.72,2.84-.29,8.79-.72,10.77-.91l13.03-1.25c2.09-.19,8.31-.86,9.33-.96.16-.05.27.14.27.29.59,4.75,1.34,9.88,2.14,13.28,0,.19-.21.48-.54.53-.27,0-.59-.1-.7-.34-4.02-6.71-6.92-11.03-11.04-11.41-1.13-.1-2.68.05-3.59.1l-1.93.19c-2.41.24-3.05.81-2.89,2.11l1.61,13.42,2.68-.38c3.16-.43,4.88-2.73,5.63-7.91.05-.24.27-.43.54-.48.32-.05.64.1.64.34.11,1.01.11,4.08.59,7.96.43,3.55,1.18,6.71,1.29,8.01.05.24-.27.43-.59.43-.27.05-.43-.1-.54-.38-2.14-5.13-4.18-6.95-7.4-6.9l-2.79.05,1.66,13.9c.16,1.44,1.07,1.97,3.32,1.73l1.55-.14c3.59-.33,5.63-1.44,7.18-3.12,1.77-1.97,3.81-6.23,5.31-11.55.11-.33.32-.53.59-.53.27-.05.54.05.59.34v.1c.38,3.21.54,8.01,1.02,12.27l.21,1.97Z" fill="#5259dd"/>
    </g>
    <g>
      <path d="M15.9,114.44c0,3.8-2.72,6.5-6.56,6.5s-6.54-2.7-6.54-6.5,2.72-6.5,6.54-6.5,6.56,2.7,6.56,6.5ZM4.23,114.44c0,3.08,2.09,5.23,5.11,5.23s5.13-2.15,5.13-5.23-2.11-5.23-5.13-5.23-5.11,2.15-5.11,5.23Z"/>
      <path d="M28.28,120.75l-7.83-11.22h-.04v11.22h-1.37v-12.62h2l7.57,10.76h.04v-10.76h1.37v12.62h-1.73Z"/>
      <path d="M33.97,120.75v-12.62h1.41v11.35h7.49v1.27h-8.9Z"/>
      <path d="M45.76,108.13h1.41v12.62h-1.41v-12.62Z"/>
      <path d="M60.36,120.75l-7.83-11.22h-.04v11.22h-1.37v-12.62h2l7.57,10.76h.04v-10.76h1.37v12.62h-1.73Z"/>
      <path d="M73.83,115.01h-6.37v4.47h7.74v1.27h-9.15v-12.62h9.15v1.27h-7.74v4.33h6.37v1.27Z"/>
      <path d="M92.86,120.75l-7.83-11.22h-.04v11.22h-1.37v-12.62h2l7.57,10.76h.04v-10.76h1.37v12.62h-1.73Z"/>
      <path d="M110.83,114.44c0,3.8-2.72,6.5-6.56,6.5s-6.54-2.7-6.54-6.5,2.72-6.5,6.54-6.5,6.56,2.7,6.56,6.5ZM99.16,114.44c0,3.08,2.09,5.23,5.11,5.23s5.13-2.15,5.13-5.23-2.11-5.23-5.13-5.23-5.11,2.15-5.11,5.23Z"/>
      <path d="M117.7,120.75l-5.48-12.62h1.54l4.6,10.82h.04l4.6-10.82h1.5l-5.48,12.62h-1.33Z"/>
      <path d="M135.06,115.01h-6.37v4.47h7.74v1.27h-9.15v-12.62h9.15v1.27h-7.74v4.33h6.37v1.27Z"/>
      <path d="M139.8,120.75v-12.62h1.41v11.35h7.49v1.27h-8.9Z"/>
      <path d="M156.65,120.75v-12.62h1.41v11.35h7.49v1.27h-8.9Z"/>
      <path d="M168.44,108.13h1.41v12.62h-1.41v-12.62Z"/>
      <path d="M181.35,114.31c1.5.38,2.3,1.37,2.3,3,0,2.24-1.46,3.44-4.3,3.44h-5.55v-12.62h5.08c2.85,0,4.32,1.16,4.32,3.35,0,1.43-.63,2.34-1.84,2.79v.04ZM178.78,113.72c2.01,0,3.02-.74,3.02-2.17s-1.01-2.15-2.95-2.15h-3.65v4.32h3.57ZM179.32,119.48c1.94,0,2.91-.74,2.91-2.22s-.99-2.26-2.99-2.26h-4.03v4.49h4.11Z"/>
      <path d="M188.14,120.75h-1.41v-12.62h5.49c2.91,0,4.41,1.29,4.41,3.82,0,2.09-1.05,3.35-3.1,3.71l3.46,5.1h-1.67l-3.25-5h-3.94v5ZM192.17,114.48c2.03,0,3.04-.86,3.04-2.53s-1.01-2.55-3.04-2.55h-4.03v5.08h4.03Z"/>
      <path d="M209.13,117.92h-7.43l-1.29,2.83h-1.48l5.86-12.62h1.33l5.86,12.62h-1.54l-1.29-2.83ZM205.41,109.77l-3.14,6.88h6.29l-3.12-6.88h-.04Z"/>
      <path d="M216.15,120.75h-1.41v-12.62h5.49c2.91,0,4.41,1.29,4.41,3.82,0,2.09-1.05,3.35-3.1,3.71l3.46,5.1h-1.67l-3.25-5h-3.94v5ZM220.18,114.48c2.03,0,3.04-.86,3.04-2.53s-1.01-2.55-3.04-2.55h-4.03v5.08h4.03Z"/>
      <path d="M231.73,120.75v-5.61l-5.42-7.02h1.73l4.45,5.84,4.37-5.84h1.69l-5.4,7.02v5.61h-1.43Z"/>
    </g>
  </g>
</svg>